# xmcd
#
# Track frame offsets:
#	150
#	15887
#	26634
#	41020
#	54812
#	72490
#	87526
#	105681
#	118793
#	135913
#	157829
#	174026
#	187783
#	206183
#	220452
#	238968
#	251171
#
# Disc length: 3529 seconds
# Revision: 0
# Processed by: cddbd v1.5.2PL0 Copyright (c) Steve Scherf et al.
# Submitted via: dBpowerAMP V12.0
#
DISCID=e40dc711
DTITLE=Rob Breese and Doug Rowe - The Best of ... 20 Years
DYEAR=2010
DGENRE=Country
TTITLE0=Got No Reason For Going Home
TTITLE1=Brand New Heartache
TTITLE2=Never Going Back
TTITLE3=I Let Her Lie
TTITLE4=Still in Love With You
TTITLE5=Is Anybody Going to San Antone
TTITLE6=Blue and Broken Hearted Me
TTITLE7=She's a Friend of a Friend
TTITLE8=Choices
TTITLE9=Pick Me Up On Your Way Down
TTITLE10=Out of Sight Out of Mind
TTITLE11=A Little Bluer Than That
TTITLE12=Footsteps of an Angel
TTITLE13=Thats How a Cowgirl Says Goodbye
TTITLE14=Ol Country Came to Town
TTITLE15=Hurt Her on The Radio
TTITLE16=Gone Gone Gone
EXTD=
EXTT0=
EXTT1=
EXTT2=
EXTT3=
EXTT4=
EXTT5=
EXTT6=
EXTT7=
EXTT8=
EXTT9=
EXTT10=
EXTT11=
EXTT12=
EXTT13=
EXTT14=
EXTT15=
EXTT16=
PLAYORDER=
